<?xml version="1.0" encoding="UTF-8"?>
<svg width="57px" height="32px" viewBox="0 0 57 32" version="1.1" xmlns="http://www.w3.org/2000/svg" xmlns:xlink="http://www.w3.org/1999/xlink">
    <!-- Generator: Sketch 52.6 (67491) - http://www.bohemiancoding.com/sketch -->
    <title>Group 4</title>
    <desc>Created with Sketch.</desc>
    <g id="Page-1" stroke="none" stroke-width="1" fill="none" fill-rule="evenodd">
        <g id="iPhone-8" transform="translate(-298.000000, -8.000000)">
            <g id="Group-4" transform="translate(298.000000, 8.000000)">
                <path d="M32.1162497,1.89153477 L31.3143685,5.5 L24,5.5 C20.9624339,5.5 18.5,7.96243388 18.5,11 L18.5,25 C18.5,28.0375661 20.9624339,30.5 24,30.5 L50,30.5 C53.0375661,30.5 55.5,28.0375661 55.5,25 L55.5,11 C55.5,7.96243388 53.0375661,5.5 50,5.5 L42.6856315,5.5 L41.8837503,1.89153477 C41.8329128,1.66276599 41.6300061,1.5 41.3956568,1.5 L32.6043432,1.5 C32.3699939,1.5 32.1670872,1.66276599 32.1162497,1.89153477 Z" id="Combined-Shape" stroke="#FFFFFF" stroke-width="3" fill-rule="nonzero"></path>
                <circle id="Oval" stroke="#FFFFFF" stroke-width="3" fill-rule="nonzero" cx="37.5" cy="17.5" r="7.5"></circle>
                <path d="M8.018,17.251 L12.986,17.251 C13.4929974,17.251 13.904,17.6620026 13.904,18.169 L13.904,18.169 C13.904,18.6759974 13.4929974,19.087 12.986,19.087 L8.018,19.087 L8.018,24.082 C8.018,24.5889974 7.6069974,25 7.1,25 L7.1,25 C6.5930026,25 6.182,24.5889974 6.182,24.082 L6.182,19.087 L1.214,19.087 C0.7070026,19.087 0.296,18.6759974 0.296,18.169 L0.296,18.169 C0.296,17.6620026 0.7070026,17.251 1.214,17.251 L6.182,17.251 L6.182,12.256 C6.182,11.7490026 6.5930026,11.338 7.1,11.338 L7.1,11.338 C7.6069974,11.338 8.018,11.7490026 8.018,12.256 L8.018,17.251 Z" id="+" fill="#FFFFFF"></path>
            </g>
        </g>
    </g>
</svg>